%TF.GenerationSoftware,KiCad,Pcbnew,5.1.5*%
%TF.CreationDate,2020-11-01T11:17:01+00:00*%
%TF.ProjectId,board,626f6172-642e-46b6-9963-61645f706362,rev?*%
%TF.SameCoordinates,Original*%
%TF.FileFunction,Other,User*%
%FSLAX46Y46*%
G04 Gerber Fmt 4.6, Leading zero omitted, Abs format (unit mm)*
G04 Created by KiCad (PCBNEW 5.1.5) date 2020-11-01 11:17:01*
%MOMM*%
%LPD*%
G04 APERTURE LIST*
%ADD10C,0.050000*%
G04 APERTURE END LIST*
D10*
%TO.C,R2*%
X141094999Y-110415001D02*
X141094999Y-94815001D01*
X136994999Y-110415001D02*
X141094999Y-110415001D01*
X136994999Y-94815001D02*
X136994999Y-110415001D01*
X141094999Y-94815001D02*
X136994999Y-94815001D01*
%TO.C,J1*%
X126640000Y-89530000D02*
X132790000Y-89530000D01*
X132790000Y-89530000D02*
X132790000Y-85930000D01*
X132790000Y-85930000D02*
X126640000Y-85930000D01*
X126640000Y-85930000D02*
X126640000Y-89530000D01*
%TO.C,U1*%
X141700000Y-115370000D02*
X136240000Y-115370000D01*
X141700000Y-115370000D02*
X141700000Y-110630000D01*
X136240000Y-110630000D02*
X136240000Y-115370000D01*
X136240000Y-110630000D02*
X141700000Y-110630000D01*
%TO.C,R1*%
X146244999Y-110415001D02*
X146244999Y-94815001D01*
X142144999Y-110415001D02*
X146244999Y-110415001D01*
X142144999Y-94815001D02*
X142144999Y-110415001D01*
X146244999Y-94815001D02*
X142144999Y-94815001D01*
%TO.C,R3*%
X135944999Y-110415001D02*
X135944999Y-94815001D01*
X131844999Y-110415001D02*
X135944999Y-110415001D01*
X131844999Y-94815001D02*
X131844999Y-110415001D01*
X135944999Y-94815001D02*
X131844999Y-94815001D01*
%TD*%
M02*
