M48
; DRILL file {KiCad 5.1.5} date Sun Nov  1 11:17:14 2020
; FORMAT={-:-/ absolute / inch / decimal}
; #@! TF.CreationDate,2020-11-01T11:17:14+00:00
; #@! TF.GenerationSoftware,Kicad,Pcbnew,5.1.5
FMAT,2
INCH
T1C0.0295
T2C0.0394
T3C0.0400
T4C0.0472
T5C0.0591
%
G90
G05
T1
X5.4213Y-4.463
X5.4713Y-4.463
X5.5213Y-4.463
T2
X5.4638Y-3.6
X5.5819Y-3.6
X5.7Y-3.6
X5.0567Y-3.4539
X5.1567Y-3.4539
T3
X5.0193Y-3.7028
X5.0193Y-3.8028
X5.0193Y-3.9028
X5.0193Y-4.0028
X5.0193Y-4.1028
X5.0193Y-4.2028
X5.0193Y-4.3028
X5.0193Y-4.4028
X5.9193Y-3.7028
X5.9193Y-3.8028
X5.9193Y-3.9028
X5.9193Y-4.0028
X5.9193Y-4.1028
X5.9193Y-4.2028
X5.9193Y-4.3028
X5.9193Y-4.4028
T4
X5.677Y-3.79
X5.677Y-4.29
X5.4742Y-3.79
X5.4742Y-4.29
X5.2715Y-3.79
X5.2715Y-4.29
T5
X5.3457Y-3.6
X5.8181Y-3.6
T0
M30
