%TF.GenerationSoftware,KiCad,Pcbnew,5.1.5*%
%TF.CreationDate,2020-11-01T11:17:01+00:00*%
%TF.ProjectId,board,626f6172-642e-46b6-9963-61645f706362,rev?*%
%TF.SameCoordinates,Original*%
%TF.FileFunction,Legend,Top*%
%TF.FilePolarity,Positive*%
%FSLAX46Y46*%
G04 Gerber Fmt 4.6, Leading zero omitted, Abs format (unit mm)*
G04 Created by KiCad (PCBNEW 5.1.5) date 2020-11-01 11:17:01*
%MOMM*%
%LPD*%
G04 APERTURE LIST*
%ADD10C,0.150000*%
%ADD11C,0.300000*%
%ADD12C,0.120000*%
G04 APERTURE END LIST*
D10*
X126589523Y-90461428D02*
X127351428Y-90461428D01*
X126970476Y-90842380D02*
X126970476Y-90080476D01*
X128018095Y-89842380D02*
X128208571Y-89842380D01*
X128303809Y-89890000D01*
X128399047Y-89985238D01*
X128446666Y-90175714D01*
X128446666Y-90509047D01*
X128399047Y-90699523D01*
X128303809Y-90794761D01*
X128208571Y-90842380D01*
X128018095Y-90842380D01*
X127922857Y-90794761D01*
X127827619Y-90699523D01*
X127780000Y-90509047D01*
X127780000Y-90175714D01*
X127827619Y-89985238D01*
X127922857Y-89890000D01*
X128018095Y-89842380D01*
X128875238Y-89842380D02*
X128875238Y-90651904D01*
X128922857Y-90747142D01*
X128970476Y-90794761D01*
X129065714Y-90842380D01*
X129256190Y-90842380D01*
X129351428Y-90794761D01*
X129399047Y-90747142D01*
X129446666Y-90651904D01*
X129446666Y-89842380D01*
X129780000Y-89842380D02*
X130351428Y-89842380D01*
X130065714Y-90842380D02*
X130065714Y-89842380D01*
X130684761Y-90461428D02*
X131446666Y-90461428D01*
X131922857Y-90842380D02*
X131922857Y-89842380D01*
X132399047Y-90842380D02*
X132399047Y-89842380D01*
X132970476Y-90842380D01*
X132970476Y-89842380D01*
D11*
X145242857Y-93278571D02*
X146171428Y-93278571D01*
X145671428Y-93850000D01*
X145885714Y-93850000D01*
X146028571Y-93921428D01*
X146100000Y-93992857D01*
X146171428Y-94135714D01*
X146171428Y-94492857D01*
X146100000Y-94635714D01*
X146028571Y-94707142D01*
X145885714Y-94778571D01*
X145457142Y-94778571D01*
X145314285Y-94707142D01*
X145242857Y-94635714D01*
X146600000Y-93278571D02*
X147100000Y-94778571D01*
X147600000Y-93278571D01*
X147957142Y-93278571D02*
X148885714Y-93278571D01*
X148385714Y-93850000D01*
X148600000Y-93850000D01*
X148742857Y-93921428D01*
X148814285Y-93992857D01*
X148885714Y-94135714D01*
X148885714Y-94492857D01*
X148814285Y-94635714D01*
X148742857Y-94707142D01*
X148600000Y-94778571D01*
X148171428Y-94778571D01*
X148028571Y-94707142D01*
X147957142Y-94635714D01*
X146692857Y-97278571D02*
X146692857Y-95778571D01*
X147050000Y-95778571D01*
X147264285Y-95850000D01*
X147407142Y-95992857D01*
X147478571Y-96135714D01*
X147550000Y-96421428D01*
X147550000Y-96635714D01*
X147478571Y-96921428D01*
X147407142Y-97064285D01*
X147264285Y-97207142D01*
X147050000Y-97278571D01*
X146692857Y-97278571D01*
X148407142Y-96421428D02*
X148264285Y-96350000D01*
X148192857Y-96278571D01*
X148121428Y-96135714D01*
X148121428Y-96064285D01*
X148192857Y-95921428D01*
X148264285Y-95850000D01*
X148407142Y-95778571D01*
X148692857Y-95778571D01*
X148835714Y-95850000D01*
X148907142Y-95921428D01*
X148978571Y-96064285D01*
X148978571Y-96135714D01*
X148907142Y-96278571D01*
X148835714Y-96350000D01*
X148692857Y-96421428D01*
X148407142Y-96421428D01*
X148264285Y-96492857D01*
X148192857Y-96564285D01*
X148121428Y-96707142D01*
X148121428Y-96992857D01*
X148192857Y-97135714D01*
X148264285Y-97207142D01*
X148407142Y-97278571D01*
X148692857Y-97278571D01*
X148835714Y-97207142D01*
X148907142Y-97135714D01*
X148978571Y-96992857D01*
X148978571Y-96707142D01*
X148907142Y-96564285D01*
X148835714Y-96492857D01*
X148692857Y-96421428D01*
X146692857Y-99878571D02*
X146692857Y-98378571D01*
X147050000Y-98378571D01*
X147264285Y-98450000D01*
X147407142Y-98592857D01*
X147478571Y-98735714D01*
X147550000Y-99021428D01*
X147550000Y-99235714D01*
X147478571Y-99521428D01*
X147407142Y-99664285D01*
X147264285Y-99807142D01*
X147050000Y-99878571D01*
X146692857Y-99878571D01*
X148050000Y-98378571D02*
X149050000Y-98378571D01*
X148407142Y-99878571D01*
X146692857Y-102278571D02*
X146692857Y-100778571D01*
X147050000Y-100778571D01*
X147264285Y-100850000D01*
X147407142Y-100992857D01*
X147478571Y-101135714D01*
X147550000Y-101421428D01*
X147550000Y-101635714D01*
X147478571Y-101921428D01*
X147407142Y-102064285D01*
X147264285Y-102207142D01*
X147050000Y-102278571D01*
X146692857Y-102278571D01*
X148835714Y-100778571D02*
X148550000Y-100778571D01*
X148407142Y-100850000D01*
X148335714Y-100921428D01*
X148192857Y-101135714D01*
X148121428Y-101421428D01*
X148121428Y-101992857D01*
X148192857Y-102135714D01*
X148264285Y-102207142D01*
X148407142Y-102278571D01*
X148692857Y-102278571D01*
X148835714Y-102207142D01*
X148907142Y-102135714D01*
X148978571Y-101992857D01*
X148978571Y-101635714D01*
X148907142Y-101492857D01*
X148835714Y-101421428D01*
X148692857Y-101350000D01*
X148407142Y-101350000D01*
X148264285Y-101421428D01*
X148192857Y-101492857D01*
X148121428Y-101635714D01*
X146692857Y-104778571D02*
X146692857Y-103278571D01*
X147050000Y-103278571D01*
X147264285Y-103350000D01*
X147407142Y-103492857D01*
X147478571Y-103635714D01*
X147550000Y-103921428D01*
X147550000Y-104135714D01*
X147478571Y-104421428D01*
X147407142Y-104564285D01*
X147264285Y-104707142D01*
X147050000Y-104778571D01*
X146692857Y-104778571D01*
X148907142Y-103278571D02*
X148192857Y-103278571D01*
X148121428Y-103992857D01*
X148192857Y-103921428D01*
X148335714Y-103850000D01*
X148692857Y-103850000D01*
X148835714Y-103921428D01*
X148907142Y-103992857D01*
X148978571Y-104135714D01*
X148978571Y-104492857D01*
X148907142Y-104635714D01*
X148835714Y-104707142D01*
X148692857Y-104778571D01*
X148335714Y-104778571D01*
X148192857Y-104707142D01*
X148121428Y-104635714D01*
X146692857Y-107378571D02*
X146692857Y-105878571D01*
X147050000Y-105878571D01*
X147264285Y-105950000D01*
X147407142Y-106092857D01*
X147478571Y-106235714D01*
X147550000Y-106521428D01*
X147550000Y-106735714D01*
X147478571Y-107021428D01*
X147407142Y-107164285D01*
X147264285Y-107307142D01*
X147050000Y-107378571D01*
X146692857Y-107378571D01*
X148478571Y-105878571D02*
X148621428Y-105878571D01*
X148764285Y-105950000D01*
X148835714Y-106021428D01*
X148907142Y-106164285D01*
X148978571Y-106450000D01*
X148978571Y-106807142D01*
X148907142Y-107092857D01*
X148835714Y-107235714D01*
X148764285Y-107307142D01*
X148621428Y-107378571D01*
X148478571Y-107378571D01*
X148335714Y-107307142D01*
X148264285Y-107235714D01*
X148192857Y-107092857D01*
X148121428Y-106807142D01*
X148121428Y-106450000D01*
X148192857Y-106164285D01*
X148264285Y-106021428D01*
X148335714Y-105950000D01*
X148478571Y-105878571D01*
X146728571Y-109550000D02*
X147442857Y-109550000D01*
X146585714Y-109978571D02*
X147085714Y-108478571D01*
X147585714Y-109978571D01*
X148371428Y-108478571D02*
X148514285Y-108478571D01*
X148657142Y-108550000D01*
X148728571Y-108621428D01*
X148800000Y-108764285D01*
X148871428Y-109050000D01*
X148871428Y-109407142D01*
X148800000Y-109692857D01*
X148728571Y-109835714D01*
X148657142Y-109907142D01*
X148514285Y-109978571D01*
X148371428Y-109978571D01*
X148228571Y-109907142D01*
X148157142Y-109835714D01*
X148085714Y-109692857D01*
X148014285Y-109407142D01*
X148014285Y-109050000D01*
X148085714Y-108764285D01*
X148157142Y-108621428D01*
X148228571Y-108550000D01*
X148371428Y-108478571D01*
X146828571Y-112578571D02*
X146328571Y-111864285D01*
X145971428Y-112578571D02*
X145971428Y-111078571D01*
X146542857Y-111078571D01*
X146685714Y-111150000D01*
X146757142Y-111221428D01*
X146828571Y-111364285D01*
X146828571Y-111578571D01*
X146757142Y-111721428D01*
X146685714Y-111792857D01*
X146542857Y-111864285D01*
X145971428Y-111864285D01*
X147400000Y-112507142D02*
X147542857Y-112578571D01*
X147828571Y-112578571D01*
X147971428Y-112507142D01*
X148042857Y-112364285D01*
X148042857Y-112292857D01*
X147971428Y-112150000D01*
X147828571Y-112078571D01*
X147614285Y-112078571D01*
X147471428Y-112007142D01*
X147400000Y-111864285D01*
X147400000Y-111792857D01*
X147471428Y-111650000D01*
X147614285Y-111578571D01*
X147828571Y-111578571D01*
X147971428Y-111650000D01*
X148471428Y-111578571D02*
X149042857Y-111578571D01*
X148685714Y-111078571D02*
X148685714Y-112364285D01*
X148757142Y-112507142D01*
X148900000Y-112578571D01*
X149042857Y-112578571D01*
X129714285Y-93178571D02*
X129000000Y-93178571D01*
X128928571Y-93892857D01*
X129000000Y-93821428D01*
X129142857Y-93750000D01*
X129500000Y-93750000D01*
X129642857Y-93821428D01*
X129714285Y-93892857D01*
X129785714Y-94035714D01*
X129785714Y-94392857D01*
X129714285Y-94535714D01*
X129642857Y-94607142D01*
X129500000Y-94678571D01*
X129142857Y-94678571D01*
X129000000Y-94607142D01*
X128928571Y-94535714D01*
X130214285Y-93178571D02*
X130714285Y-94678571D01*
X131214285Y-93178571D01*
X129892857Y-95750000D02*
X129750000Y-95678571D01*
X129535714Y-95678571D01*
X129321428Y-95750000D01*
X129178571Y-95892857D01*
X129107142Y-96035714D01*
X129035714Y-96321428D01*
X129035714Y-96535714D01*
X129107142Y-96821428D01*
X129178571Y-96964285D01*
X129321428Y-97107142D01*
X129535714Y-97178571D01*
X129678571Y-97178571D01*
X129892857Y-97107142D01*
X129964285Y-97035714D01*
X129964285Y-96535714D01*
X129678571Y-96535714D01*
X128992857Y-99678571D02*
X128992857Y-98178571D01*
X129350000Y-98178571D01*
X129564285Y-98250000D01*
X129707142Y-98392857D01*
X129778571Y-98535714D01*
X129850000Y-98821428D01*
X129850000Y-99035714D01*
X129778571Y-99321428D01*
X129707142Y-99464285D01*
X129564285Y-99607142D01*
X129350000Y-99678571D01*
X128992857Y-99678571D01*
X131135714Y-98678571D02*
X131135714Y-99678571D01*
X130778571Y-98107142D02*
X130421428Y-99178571D01*
X131350000Y-99178571D01*
X128992857Y-102278571D02*
X128992857Y-100778571D01*
X129350000Y-100778571D01*
X129564285Y-100850000D01*
X129707142Y-100992857D01*
X129778571Y-101135714D01*
X129850000Y-101421428D01*
X129850000Y-101635714D01*
X129778571Y-101921428D01*
X129707142Y-102064285D01*
X129564285Y-102207142D01*
X129350000Y-102278571D01*
X128992857Y-102278571D01*
X130350000Y-100778571D02*
X131278571Y-100778571D01*
X130778571Y-101350000D01*
X130992857Y-101350000D01*
X131135714Y-101421428D01*
X131207142Y-101492857D01*
X131278571Y-101635714D01*
X131278571Y-101992857D01*
X131207142Y-102135714D01*
X131135714Y-102207142D01*
X130992857Y-102278571D01*
X130564285Y-102278571D01*
X130421428Y-102207142D01*
X130350000Y-102135714D01*
X128992857Y-104878571D02*
X128992857Y-103378571D01*
X129350000Y-103378571D01*
X129564285Y-103450000D01*
X129707142Y-103592857D01*
X129778571Y-103735714D01*
X129850000Y-104021428D01*
X129850000Y-104235714D01*
X129778571Y-104521428D01*
X129707142Y-104664285D01*
X129564285Y-104807142D01*
X129350000Y-104878571D01*
X128992857Y-104878571D01*
X130421428Y-103521428D02*
X130492857Y-103450000D01*
X130635714Y-103378571D01*
X130992857Y-103378571D01*
X131135714Y-103450000D01*
X131207142Y-103521428D01*
X131278571Y-103664285D01*
X131278571Y-103807142D01*
X131207142Y-104021428D01*
X130350000Y-104878571D01*
X131278571Y-104878571D01*
X128992857Y-107478571D02*
X128992857Y-105978571D01*
X129350000Y-105978571D01*
X129564285Y-106050000D01*
X129707142Y-106192857D01*
X129778571Y-106335714D01*
X129850000Y-106621428D01*
X129850000Y-106835714D01*
X129778571Y-107121428D01*
X129707142Y-107264285D01*
X129564285Y-107407142D01*
X129350000Y-107478571D01*
X128992857Y-107478571D01*
X131278571Y-107478571D02*
X130421428Y-107478571D01*
X130850000Y-107478571D02*
X130850000Y-105978571D01*
X130707142Y-106192857D01*
X130564285Y-106335714D01*
X130421428Y-106407142D01*
X129850000Y-109878571D02*
X129350000Y-109164285D01*
X128992857Y-109878571D02*
X128992857Y-108378571D01*
X129564285Y-108378571D01*
X129707142Y-108450000D01*
X129778571Y-108521428D01*
X129850000Y-108664285D01*
X129850000Y-108878571D01*
X129778571Y-109021428D01*
X129707142Y-109092857D01*
X129564285Y-109164285D01*
X128992857Y-109164285D01*
X130350000Y-108378571D02*
X131350000Y-109878571D01*
X131350000Y-108378571D02*
X130350000Y-109878571D01*
X128757142Y-110978571D02*
X129614285Y-110978571D01*
X129185714Y-112478571D02*
X129185714Y-110978571D01*
X129971428Y-110978571D02*
X130971428Y-112478571D01*
X130971428Y-110978571D02*
X129971428Y-112478571D01*
D12*
%TO.C,SW1*%
X135780000Y-91440000D02*
X147780000Y-91440000D01*
X147780000Y-91440000D02*
X147780000Y-84440000D01*
X147780000Y-84440000D02*
X135780000Y-84440000D01*
X135780000Y-84440000D02*
X135780000Y-91440000D01*
%TO.C,R2*%
X137124999Y-107685001D02*
X137604999Y-107685001D01*
X137124999Y-97545001D02*
X137124999Y-107685001D01*
X137604999Y-97545001D02*
X137124999Y-97545001D01*
X140964999Y-107685001D02*
X140484999Y-107685001D01*
X140964999Y-97545001D02*
X140964999Y-107685001D01*
X140484999Y-97545001D02*
X140964999Y-97545001D01*
%TO.C,J1*%
X132310000Y-89060000D02*
X132310000Y-86400000D01*
X129710000Y-89060000D02*
X132310000Y-89060000D01*
X129710000Y-86400000D02*
X132310000Y-86400000D01*
X129710000Y-89060000D02*
X129710000Y-86400000D01*
X128440000Y-89060000D02*
X127110000Y-89060000D01*
X127110000Y-89060000D02*
X127110000Y-87730000D01*
%TO.C,U1*%
X137170000Y-115210000D02*
X140770000Y-115210000D01*
X137131522Y-115198478D02*
G75*
G02X138970000Y-110760000I1838478J1838478D01*
G01*
X140808478Y-115198478D02*
G75*
G03X138970000Y-110760000I-1838478J1838478D01*
G01*
%TO.C,R1*%
X142274999Y-107685001D02*
X142754999Y-107685001D01*
X142274999Y-97545001D02*
X142274999Y-107685001D01*
X142754999Y-97545001D02*
X142274999Y-97545001D01*
X146114999Y-107685001D02*
X145634999Y-107685001D01*
X146114999Y-97545001D02*
X146114999Y-107685001D01*
X145634999Y-97545001D02*
X146114999Y-97545001D01*
%TO.C,R3*%
X131974999Y-107685001D02*
X132454999Y-107685001D01*
X131974999Y-97545001D02*
X131974999Y-107685001D01*
X132454999Y-97545001D02*
X131974999Y-97545001D01*
X135814999Y-107685001D02*
X135334999Y-107685001D01*
X135814999Y-97545001D02*
X135814999Y-107685001D01*
X135334999Y-97545001D02*
X135814999Y-97545001D01*
%TO.C,SW1*%
D10*
X140446666Y-88844761D02*
X140589523Y-88892380D01*
X140827619Y-88892380D01*
X140922857Y-88844761D01*
X140970476Y-88797142D01*
X141018095Y-88701904D01*
X141018095Y-88606666D01*
X140970476Y-88511428D01*
X140922857Y-88463809D01*
X140827619Y-88416190D01*
X140637142Y-88368571D01*
X140541904Y-88320952D01*
X140494285Y-88273333D01*
X140446666Y-88178095D01*
X140446666Y-88082857D01*
X140494285Y-87987619D01*
X140541904Y-87940000D01*
X140637142Y-87892380D01*
X140875238Y-87892380D01*
X141018095Y-87940000D01*
X141351428Y-87892380D02*
X141589523Y-88892380D01*
X141780000Y-88178095D01*
X141970476Y-88892380D01*
X142208571Y-87892380D01*
X143113333Y-88892380D02*
X142541904Y-88892380D01*
X142827619Y-88892380D02*
X142827619Y-87892380D01*
X142732380Y-88035238D01*
X142637142Y-88130476D01*
X142541904Y-88178095D01*
%TO.C,R2*%
X139512380Y-102806666D02*
X139036190Y-103140000D01*
X139512380Y-103378095D02*
X138512380Y-103378095D01*
X138512380Y-102997142D01*
X138560000Y-102901904D01*
X138607619Y-102854285D01*
X138702857Y-102806666D01*
X138845714Y-102806666D01*
X138940952Y-102854285D01*
X138988571Y-102901904D01*
X139036190Y-102997142D01*
X139036190Y-103378095D01*
X138607619Y-102425714D02*
X138560000Y-102378095D01*
X138512380Y-102282857D01*
X138512380Y-102044761D01*
X138560000Y-101949523D01*
X138607619Y-101901904D01*
X138702857Y-101854285D01*
X138798095Y-101854285D01*
X138940952Y-101901904D01*
X139512380Y-102473333D01*
X139512380Y-101854285D01*
%TO.C,U1*%
X138208095Y-109252380D02*
X138208095Y-110061904D01*
X138255714Y-110157142D01*
X138303333Y-110204761D01*
X138398571Y-110252380D01*
X138589047Y-110252380D01*
X138684285Y-110204761D01*
X138731904Y-110157142D01*
X138779523Y-110061904D01*
X138779523Y-109252380D01*
X139779523Y-110252380D02*
X139208095Y-110252380D01*
X139493809Y-110252380D02*
X139493809Y-109252380D01*
X139398571Y-109395238D01*
X139303333Y-109490476D01*
X139208095Y-109538095D01*
%TO.C,R1*%
X144652380Y-102766666D02*
X144176190Y-103100000D01*
X144652380Y-103338095D02*
X143652380Y-103338095D01*
X143652380Y-102957142D01*
X143700000Y-102861904D01*
X143747619Y-102814285D01*
X143842857Y-102766666D01*
X143985714Y-102766666D01*
X144080952Y-102814285D01*
X144128571Y-102861904D01*
X144176190Y-102957142D01*
X144176190Y-103338095D01*
X144652380Y-101814285D02*
X144652380Y-102385714D01*
X144652380Y-102100000D02*
X143652380Y-102100000D01*
X143795238Y-102195238D01*
X143890476Y-102290476D01*
X143938095Y-102385714D01*
%TO.C,R3*%
X134322380Y-102781667D02*
X133846190Y-103115001D01*
X134322380Y-103353096D02*
X133322380Y-103353096D01*
X133322380Y-102972143D01*
X133370000Y-102876905D01*
X133417619Y-102829286D01*
X133512857Y-102781667D01*
X133655714Y-102781667D01*
X133750952Y-102829286D01*
X133798571Y-102876905D01*
X133846190Y-102972143D01*
X133846190Y-103353096D01*
X133322380Y-102448334D02*
X133322380Y-101829286D01*
X133703333Y-102162620D01*
X133703333Y-102019762D01*
X133750952Y-101924524D01*
X133798571Y-101876905D01*
X133893809Y-101829286D01*
X134131904Y-101829286D01*
X134227142Y-101876905D01*
X134274761Y-101924524D01*
X134322380Y-102019762D01*
X134322380Y-102305477D01*
X134274761Y-102400715D01*
X134227142Y-102448334D01*
%TD*%
M02*
