%TF.GenerationSoftware,KiCad,Pcbnew,5.1.5*%
%TF.CreationDate,2020-11-01T11:17:01+00:00*%
%TF.ProjectId,board,626f6172-642e-46b6-9963-61645f706362,rev?*%
%TF.SameCoordinates,Original*%
%TF.FileFunction,Copper,L1,Top*%
%TF.FilePolarity,Positive*%
%FSLAX46Y46*%
G04 Gerber Fmt 4.6, Leading zero omitted, Abs format (unit mm)*
G04 Created by KiCad (PCBNEW 5.1.5) date 2020-11-01 11:17:01*
%MOMM*%
%LPD*%
G04 APERTURE LIST*
%TA.AperFunction,ComponentPad*%
%ADD10C,1.700000*%
%TD*%
%TA.AperFunction,ComponentPad*%
%ADD11O,2.000000X2.500000*%
%TD*%
%TA.AperFunction,ComponentPad*%
%ADD12C,2.400000*%
%TD*%
%TA.AperFunction,ComponentPad*%
%ADD13O,2.400000X2.400000*%
%TD*%
%TA.AperFunction,ComponentPad*%
%ADD14R,1.800000X1.800000*%
%TD*%
%TA.AperFunction,ComponentPad*%
%ADD15O,1.800000X1.800000*%
%TD*%
%TA.AperFunction,ComponentPad*%
%ADD16O,1.700000X1.700000*%
%TD*%
%TA.AperFunction,ComponentPad*%
%ADD17R,1.700000X1.700000*%
%TD*%
%TA.AperFunction,ComponentPad*%
%ADD18O,1.050000X1.500000*%
%TD*%
%TA.AperFunction,ComponentPad*%
%ADD19R,1.050000X1.500000*%
%TD*%
%TA.AperFunction,Conductor*%
%ADD20C,0.250000*%
%TD*%
%TA.AperFunction,Conductor*%
%ADD21C,0.500000*%
%TD*%
G04 APERTURE END LIST*
D10*
%TO.P,SW1,1*%
%TO.N,+5V*%
X144780000Y-91440000D03*
%TO.P,SW1,2*%
%TO.N,+OUT*%
X141780000Y-91440000D03*
%TO.P,SW1,3*%
%TO.N,Net-(SW1-Pad3)*%
X138780000Y-91440000D03*
D11*
%TO.P,SW1,*%
%TO.N,*%
X147780000Y-91440000D03*
X135780000Y-91440000D03*
%TD*%
D12*
%TO.P,R2,1*%
%TO.N,+5V*%
X139044999Y-96265001D03*
D13*
%TO.P,R2,2*%
%TO.N,A0*%
X139044999Y-108965001D03*
%TD*%
D14*
%TO.P,P2,1*%
%TO.N,/+3.3V*%
X150350000Y-94050000D03*
D15*
%TO.P,P2,2*%
%TO.N,/D8*%
X150350000Y-96590000D03*
%TO.P,P2,3*%
%TO.N,/D7*%
X150350000Y-99130000D03*
%TO.P,P2,4*%
%TO.N,D6*%
X150350000Y-101670000D03*
%TO.P,P2,5*%
%TO.N,/D5*%
X150350000Y-104210000D03*
%TO.P,P2,6*%
%TO.N,D0*%
X150350000Y-106750000D03*
%TO.P,P2,7*%
%TO.N,A0*%
X150350000Y-109290000D03*
%TO.P,P2,8*%
%TO.N,RST*%
X150350000Y-111830000D03*
%TD*%
D16*
%TO.P,J1,2*%
%TO.N,-IN*%
X130980000Y-87730000D03*
D17*
%TO.P,J1,1*%
%TO.N,+OUT*%
X128440000Y-87730000D03*
%TD*%
D18*
%TO.P,U1,2*%
%TO.N,D6*%
X138970000Y-113360000D03*
%TO.P,U1,3*%
%TO.N,+5V*%
X140240000Y-113360000D03*
D19*
%TO.P,U1,1*%
%TO.N,-IN*%
X137700000Y-113360000D03*
%TD*%
D14*
%TO.P,P1,1*%
%TO.N,+5V*%
X127490000Y-94050000D03*
D15*
%TO.P,P1,2*%
%TO.N,-IN*%
X127490000Y-96590000D03*
%TO.P,P1,3*%
%TO.N,/D4*%
X127490000Y-99130000D03*
%TO.P,P1,4*%
%TO.N,/D3*%
X127490000Y-101670000D03*
%TO.P,P1,5*%
%TO.N,/D2*%
X127490000Y-104210000D03*
%TO.P,P1,6*%
%TO.N,/D1*%
X127490000Y-106750000D03*
%TO.P,P1,7*%
%TO.N,/RX*%
X127490000Y-109290000D03*
%TO.P,P1,8*%
%TO.N,/TX*%
X127490000Y-111830000D03*
%TD*%
D12*
%TO.P,R1,1*%
%TO.N,D0*%
X144194999Y-96265001D03*
D13*
%TO.P,R1,2*%
%TO.N,RST*%
X144194999Y-108965001D03*
%TD*%
D12*
%TO.P,R3,1*%
%TO.N,+5V*%
X133894999Y-96265001D03*
D13*
%TO.P,R3,2*%
%TO.N,D6*%
X133894999Y-108965001D03*
%TD*%
D20*
%TO.N,+OUT*%
X128440000Y-87730000D02*
X128440000Y-88070000D01*
D21*
X128440000Y-89080000D02*
X130800000Y-91440000D01*
X128440000Y-87730000D02*
X128440000Y-89080000D01*
X130800000Y-91440000D02*
X132080000Y-91440000D01*
X132080000Y-91440000D02*
X134620000Y-88900000D01*
X139240000Y-88900000D02*
X141780000Y-91440000D01*
X134620000Y-88900000D02*
X139240000Y-88900000D01*
D20*
%TO.N,+5V*%
X139044999Y-96265001D02*
X139044999Y-95144999D01*
D21*
X142170000Y-94050000D02*
X144780000Y-91440000D01*
X140244998Y-95065002D02*
X141154998Y-95065002D01*
X139044999Y-96265001D02*
X140244998Y-95065002D01*
X141154998Y-95065002D02*
X142240000Y-93980000D01*
X136110000Y-94050000D02*
X133894999Y-96265001D01*
D20*
X138360000Y-94050000D02*
X136110000Y-94050000D01*
D21*
X127490000Y-94050000D02*
X138360000Y-94050000D01*
X138360000Y-94050000D02*
X142170000Y-94050000D01*
D20*
%TO.N,D6*%
X138970000Y-112342946D02*
X138970000Y-113360000D01*
X135592055Y-108965001D02*
X138970000Y-112342946D01*
X133894999Y-108965001D02*
X135592055Y-108965001D01*
X133894999Y-108965001D02*
X141220000Y-101640000D01*
X150320000Y-101640000D02*
X150350000Y-101670000D01*
X141220000Y-101640000D02*
X150320000Y-101640000D01*
%TO.N,A0*%
X139044999Y-108965001D02*
X142650000Y-105360000D01*
X146420000Y-105360000D02*
X150350000Y-109290000D01*
X142650000Y-105360000D02*
X146420000Y-105360000D01*
%TO.N,RST*%
X147485001Y-108965001D02*
X150350000Y-111830000D01*
X144194999Y-108965001D02*
X147485001Y-108965001D01*
%TD*%
M02*
