%TF.GenerationSoftware,KiCad,Pcbnew,5.1.5*%
%TF.CreationDate,2020-11-01T11:17:01+00:00*%
%TF.ProjectId,board,626f6172-642e-46b6-9963-61645f706362,rev?*%
%TF.SameCoordinates,Original*%
%TF.FileFunction,Profile,NP*%
%FSLAX46Y46*%
G04 Gerber Fmt 4.6, Leading zero omitted, Abs format (unit mm)*
G04 Created by KiCad (PCBNEW 5.1.5) date 2020-11-01 11:17:01*
%MOMM*%
%LPD*%
G04 APERTURE LIST*
%TA.AperFunction,Profile*%
%ADD10C,0.100000*%
%TD*%
G04 APERTURE END LIST*
D10*
X149762480Y-91985819D02*
X149800000Y-85200000D01*
X151706026Y-92946715D02*
X149762480Y-91985819D01*
X151681078Y-115501807D02*
X151706026Y-92946715D01*
X151565482Y-116394575D02*
X151681078Y-115501807D01*
X151337122Y-117149613D02*
X151565482Y-116394575D01*
X151009595Y-117781460D02*
X151337122Y-117149613D01*
X150596503Y-118304658D02*
X151009595Y-117781460D01*
X150111445Y-118733743D02*
X150596503Y-118304658D01*
X149568018Y-119083258D02*
X150111445Y-118733743D01*
X148979824Y-119367741D02*
X149568018Y-119083258D01*
X148360460Y-119601734D02*
X148979824Y-119367741D01*
X129322547Y-119572976D02*
X148360460Y-119601734D01*
X128724750Y-119387310D02*
X129322547Y-119572976D01*
X128180560Y-119140377D02*
X128724750Y-119387310D01*
X127689488Y-118832741D02*
X128180560Y-119140377D01*
X127251047Y-118464952D02*
X127689488Y-118832741D01*
X126864747Y-118037577D02*
X127251047Y-118464952D01*
X126530099Y-117551167D02*
X126864747Y-118037577D01*
X126246616Y-117006286D02*
X126530099Y-117551167D01*
X126013805Y-116403493D02*
X126246616Y-117006286D01*
X125999807Y-85233342D02*
X126013805Y-116403493D01*
X135080603Y-85207264D02*
X125999807Y-85233342D01*
X135078627Y-86409517D02*
X135080603Y-85207264D01*
X143909849Y-86416205D02*
X135078627Y-86409517D01*
X143900000Y-85200000D02*
X143909849Y-86416205D01*
X149800000Y-85200000D02*
X143900000Y-85200000D01*
M02*
